<?xml version="1.0" standalone="no"?>
<!DOCTYPE svg PUBLIC "-//W3C//DTD SVG 20010904//EN"
 "http://www.w3.org/TR/2001/REC-SVG-20010904/DTD/svg10.dtd">
<svg version="1.0" xmlns="http://www.w3.org/2000/svg"
 width="300.000000pt" height="88.000000pt" viewBox="0 0 300.000000 88.000000"
 preserveAspectRatio="xMidYMid meet">

<g transform="translate(0.000000,88.000000) scale(0.100000,-0.100000)"
fill="#000000" stroke="none">
<path d="M101 816 c-48 -26 -50 -43 -51 -323 l0 -263 29 -32 29 -33 156 -3
156 -4 0 -44 c0 -44 0 -44 -35 -44 -24 0 -35 -5 -35 -15 0 -13 26 -15 170 -15
144 0 170 2 170 15 0 10 -11 15 -35 15 -35 0 -35 0 -35 45 l0 45 133 1 c158 0
195 10 220 59 16 31 17 62 15 293 l-3 259 -33 29 -32 29 -398 0 c-310 -1 -402
-4 -421 -14z m839 -36 c19 -19 20 -33 20 -284 l0 -265 -26 -20 c-26 -20 -37
-21 -418 -21 -381 0 -393 1 -414 20 -22 20 -22 26 -22 287 0 234 2 269 17 285
15 17 41 18 420 18 390 0 404 -1 423 -20z m-350 -665 l0 -45 -70 0 -70 0 0 45
0 45 70 0 70 0 0 -45z"/>
<path d="M1900 490 c0 -153 2 -180 15 -180 8 0 15 9 15 21 0 20 0 20 28 1 50
-36 101 -32 148 11 110 101 -8 284 -133 207 l-33 -20 0 70 c0 63 -2 70 -20 70
-19 0 -20 -7 -20 -180z m184 24 c20 -21 26 -37 26 -71 0 -78 -55 -124 -120
-101 -39 13 -50 35 -50 98 0 41 5 56 25 75 33 34 84 34 119 -1z"/>
<path d="M2450 645 c0 -16 6 -25 15 -25 9 0 15 9 15 25 0 16 -6 25 -15 25 -9
0 -15 -9 -15 -25z"/>
<path d="M1100 654 c0 -3 32 -83 71 -175 51 -119 77 -169 88 -169 11 0 28 29
52 86 l36 86 36 -84 c25 -59 41 -83 53 -83 13 0 35 39 85 157 36 86 69 164 72
173 4 10 0 15 -12 15 -14 0 -31 -32 -76 -142 -32 -79 -61 -147 -65 -151 -4 -4
-21 25 -39 66 l-32 73 21 55 c43 106 41 99 20 99 -11 0 -20 -6 -21 -12 0 -7
-10 -35 -23 -63 l-22 -49 -23 62 c-13 35 -29 62 -37 62 -19 0 -18 -11 11 -76
14 -31 25 -64 25 -72 0 -19 -53 -152 -60 -152 -3 0 -32 66 -66 148 -40 99 -66
148 -77 150 -9 2 -17 0 -17 -4z"/>
<path d="M2560 610 c0 -29 -4 -40 -15 -40 -8 0 -15 -7 -15 -15 0 -8 7 -15 15
-15 12 0 15 -16 15 -87 0 -125 23 -157 96 -139 33 9 20 31 -19 31 l-32 0 -3
98 -3 97 31 0 c20 0 30 5 30 15 0 10 -10 15 -30 15 -28 0 -30 2 -30 40 0 33
-3 40 -20 40 -17 0 -20 -7 -20 -40z"/>
<path d="M1659 555 c-101 -55 -78 -219 34 -244 40 -10 105 9 124 36 19 25 -5
35 -28 12 -26 -26 -64 -33 -100 -19 -27 12 -59 54 -59 80 0 6 40 10 110 10
122 0 123 0 96 65 -27 64 -115 94 -177 60z m118 -30 c11 -8 26 -28 31 -45 l11
-30 -95 0 c-59 0 -94 4 -94 10 0 18 29 68 42 73 27 11 84 6 105 -8z"/>
<path d="M2226 549 c-22 -17 -27 -28 -24 -58 3 -35 4 -36 78 -61 66 -23 75
-29 75 -50 0 -16 -9 -29 -27 -39 -26 -15 -62 -11 -120 14 -27 11 -22 -12 7
-31 35 -23 110 -22 143 3 33 24 41 73 16 94 -9 8 -44 23 -78 34 -71 23 -86 52
-42 80 24 16 51 14 109 -10 28 -12 21 20 -8 33 -41 19 -99 15 -129 -9z"/>
<path d="M2450 440 c0 -109 2 -130 15 -130 13 0 15 21 15 130 0 109 -2 130
-15 130 -13 0 -15 -21 -15 -130z"/>
<path d="M2739 531 c-34 -34 -39 -44 -39 -86 0 -85 55 -140 138 -138 34 1 82
28 90 51 5 17 -18 15 -38 -3 -10 -9 -33 -18 -52 -22 -29 -4 -40 0 -66 23 -17
16 -33 39 -37 52 -6 22 -6 22 104 22 l111 0 0 31 c0 23 -10 42 -39 70 -34 34
-44 39 -86 39 -42 0 -52 -5 -86 -39z m155 -22 c45 -53 38 -59 -70 -59 -94 0
-95 0 -89 23 14 43 45 67 91 67 35 0 47 -5 68 -31z"/>
</g>
</svg>
