<?xml version="1.0" standalone="no"?>
<!DOCTYPE svg PUBLIC "-//W3C//DTD SVG 20010904//EN"
 "http://www.w3.org/TR/2001/REC-SVG-20010904/DTD/svg10.dtd">
<svg version="1.0" xmlns="http://www.w3.org/2000/svg"
 width="300.000000pt" height="88.000000pt" viewBox="0 0 300.000000 88.000000"
 preserveAspectRatio="xMidYMid meet">

<g transform="translate(0.000000,88.000000) scale(0.100000,-0.100000)"
fill="#000000" stroke="none">
<path d="M101 816 c-48 -26 -50 -43 -51 -323 l0 -263 29 -32 29 -33 156 -3
156 -4 0 -44 c0 -44 0 -44 -35 -44 -24 0 -35 -5 -35 -15 0 -13 26 -15 170 -15
144 0 170 2 170 15 0 10 -11 15 -35 15 -35 0 -35 0 -35 45 l0 45 133 1 c158 0
195 10 220 59 16 31 17 62 15 293 l-3 259 -33 29 -32 29 -398 0 c-310 -1 -402
-4 -421 -14z m839 -36 c19 -19 20 -33 20 -284 l0 -265 -26 -20 c-26 -20 -37
-21 -418 -21 -381 0 -393 1 -414 20 -22 20 -22 26 -22 287 0 234 2 269 17 285
15 17 41 18 420 18 390 0 404 -1 423 -20z m-350 -665 l0 -45 -70 0 -70 0 0 45
0 45 70 0 70 0 0 -45z"/>
</g>
</svg>
